HIERARCHY
ROOT Hips
{
	OFFSET 0.000000 83.214638 0.000000
	CHANNELS 6 Xposition Yposition Zposition Xrotation Yrotation Zrotation
	JOINT Pelvis
	{
		OFFSET 0.000000 0.000000 0.000000
		CHANNELS 3 Xrotation Yrotation Zrotation
		JOINT LeftUpLeg
		{
			OFFSET 8.479700 -4.795502 -0.379100
			CHANNELS 3 Xrotation Yrotation Zrotation
			JOINT LeftLeg
			{
				OFFSET 0.024144 -32.555107 0.112900
				CHANNELS 3 Xrotation Yrotation Zrotation
				JOINT LeftFoot
				{
					OFFSET -0.024144 -32.638630 -3.012600
					CHANNELS 3 Xrotation Yrotation Zrotation
					JOINT LeftToeBase
					{
						OFFSET 0.970200 -13.225400 11.864200
						CHANNELS 3 Xrotation Yrotation Zrotation
						End Site
						{
							OFFSET 0.000000 12.319262 0.000000
						}
					}
					JOINT LFootTongue
					{
						OFFSET 1.142400 -1.059800 6.665200
						CHANNELS 3 Xrotation Yrotation Zrotation
						End Site
						{
							OFFSET 0.000000 12.319262 0.000000
						}
					}
				}
				JOINT LeftPantLeg
				{
					OFFSET 0.918482 -16.533964 -2.284700
					CHANNELS 3 Xrotation Yrotation Zrotation
					End Site
					{
						OFFSET 0.350399 24.744368 0.000000
					}
				}
			}
		}
		JOINT RightUpLeg
		{
			OFFSET -8.479700 -4.795502 -0.379100
			CHANNELS 3 Xrotation Yrotation Zrotation
			JOINT RightLeg
			{
				OFFSET -0.023144 -32.555092 0.112900
				CHANNELS 3 Xrotation Yrotation Zrotation
				JOINT RightFoot
				{
					OFFSET 0.023144 -32.638641 -3.012700
					CHANNELS 3 Xrotation Yrotation Zrotation
					JOINT RightToeBase
					{
						OFFSET -0.970200 -13.225400 11.864200
						CHANNELS 3 Xrotation Yrotation Zrotation
						End Site
						{
							OFFSET 0.000000 12.319244 0.000000
						}
					}
					JOINT RFootTongue
					{
						OFFSET -1.142200 -1.059800 6.665200
						CHANNELS 3 Xrotation Yrotation Zrotation
						End Site
						{
							OFFSET 0.000000 12.319243 0.000000
						}
					}
				}
				JOINT RightPantLeg
				{
					OFFSET -0.919482 -16.533978 -2.284800
					CHANNELS 3 Xrotation Yrotation Zrotation
					End Site
					{
						OFFSET -0.350400 24.744419 0.000000
					}
				}
			}
		}
	}
	JOINT Spine
	{
		OFFSET 0.000000 7.722000 1.166200
		CHANNELS 3 Xrotation Yrotation Zrotation
		JOINT Spine1
		{
			OFFSET 0.000000 12.024101 0.248800
			CHANNELS 3 Xrotation Yrotation Zrotation
			JOINT Spine2
			{
				OFFSET 0.000000 11.502998 -0.491200
				CHANNELS 3 Xrotation Yrotation Zrotation
				JOINT Neck
				{
					OFFSET 0.000000 18.430702 -3.123100
					CHANNELS 3 Xrotation Yrotation Zrotation
					JOINT Head
					{
						OFFSET 0.000000 9.051102 1.034000
						CHANNELS 3 Xrotation Yrotation Zrotation
						JOINT HairB
						{
							OFFSET 0.208400 24.786102 24.822300
							CHANNELS 3 Xrotation Yrotation Zrotation
							End Site
							{
								OFFSET 0.000000 32.263779 0.000000
							}
						}
						JOINT HairA
						{
							OFFSET -7.081100 24.428299 23.196600
							CHANNELS 3 Xrotation Yrotation Zrotation
							End Site
							{
								OFFSET 0.000000 32.263779 0.000000
							}
						}
						JOINT Hat
						{
							OFFSET 16.728800 15.048294 -15.439601
							CHANNELS 3 Xrotation Yrotation Zrotation
							End Site
							{
								OFFSET 0.000000 32.263779 0.000000
							}
						}
					}
				}
				JOINT LeftShoulder
				{
					OFFSET 6.197800 13.665199 -4.064700
					CHANNELS 3 Xrotation Yrotation Zrotation
					JOINT LeftArm
					{
						OFFSET 7.778100 -0.187103 -1.709300
						CHANNELS 3 Xrotation Yrotation Zrotation
						JOINT LeftForeArm
						{
							OFFSET 22.049376 0.000000 0.000000
							CHANNELS 3 Xrotation Yrotation Zrotation
							JOINT LeftHand
							{
								OFFSET 23.009392 0.000000 0.000000
								CHANNELS 3 Xrotation Yrotation Zrotation
								JOINT LeftHandThumb1
								{
									OFFSET 3.507191 -2.063065 3.133727
									CHANNELS 3 Xrotation Yrotation Zrotation
									JOINT LeftHandThumb2
									{
										OFFSET 3.101337 -1.790558 1.790558
										CHANNELS 3 Xrotation Yrotation Zrotation
										JOINT LeftHandThumb3
										{
											OFFSET 3.058640 -1.765907 1.765906
											CHANNELS 3 Xrotation Yrotation Zrotation
											End Site
											{
												OFFSET -0.415260 3.926476 -0.049563
											}
										}
									}
								}
								JOINT LeftHandIndex1
								{
									OFFSET 11.334419 -0.901459 3.706815
									CHANNELS 3 Xrotation Yrotation Zrotation
									JOINT LeftHandIndex2
									{
										OFFSET 3.283112 0.000000 0.000000
										CHANNELS 3 Xrotation Yrotation Zrotation
										JOINT LeftHandIndex3
										{
											OFFSET 3.323853 0.000000 0.000000
											CHANNELS 3 Xrotation Yrotation Zrotation
											End Site
											{
												OFFSET -1.135597 3.097809 0.402452
											}
										}
									}
								}
								JOINT LeftHandMiddle1
								{
									OFFSET 11.335861 0.000000 0.000000
									CHANNELS 3 Xrotation Yrotation Zrotation
									JOINT LeftHandMiddle2
									{
										OFFSET 3.410492 0.000000 0.000000
										CHANNELS 3 Xrotation Yrotation Zrotation
										JOINT LeftHandMiddle3
										{
											OFFSET 3.312172 0.000000 0.000000
											CHANNELS 3 Xrotation Yrotation Zrotation
											End Site
											{
												OFFSET -1.150200 3.080154 0.400270
											}
										}
									}
								}
								JOINT LeftHandRing1
								{
									OFFSET 11.514786 -0.013176 -3.003090
									CHANNELS 3 Xrotation Yrotation Zrotation
									JOINT LeftHandRing2
									{
										OFFSET 3.053307 0.000000 0.000000
										CHANNELS 3 Xrotation Yrotation Zrotation
										JOINT LeftHandRing3
										{
											OFFSET 3.295807 0.000000 0.000000
											CHANNELS 3 Xrotation Yrotation Zrotation
											End Site
											{
												OFFSET -1.281006 3.013344 0.375733
											}
										}
									}
								}
								JOINT LeftHandPinky1
								{
									OFFSET 10.518692 -0.960396 -5.730441
									CHANNELS 3 Xrotation Yrotation Zrotation
									JOINT LeftHandPinky2
									{
										OFFSET 2.861649 0.000000 0.000000
										CHANNELS 3 Xrotation Yrotation Zrotation
										JOINT LeftHandPinky3
										{
											OFFSET 2.863380 0.000000 0.000000
											CHANNELS 3 Xrotation Yrotation Zrotation
											End Site
											{
												OFFSET -0.843597 2.711159 0.369971
											}
										}
									}
								}
							}
							JOINT LSleeve
							{
								OFFSET 6.676277 -0.344902 -1.011730
								CHANNELS 3 Xrotation Yrotation Zrotation
								End Site
								{
									OFFSET 0.000000 14.885353 0.000000
								}
							}
						}
					}
				}
				JOINT RightShoulder
				{
					OFFSET -6.197800 13.665199 -4.064700
					CHANNELS 3 Xrotation Yrotation Zrotation
					JOINT RightArm
					{
						OFFSET -7.778100 -0.187103 -1.709300
						CHANNELS 3 Xrotation Yrotation Zrotation
						JOINT RightForeArm
						{
							OFFSET -22.049376 0.000000 0.000000
							CHANNELS 3 Xrotation Yrotation Zrotation
							JOINT RightHand
							{
								OFFSET -23.009392 0.000000 0.000000
								CHANNELS 3 Xrotation Yrotation Zrotation
								JOINT RightHandThumb1
								{
									OFFSET -3.507191 -2.063065 3.133727
									CHANNELS 3 Xrotation Yrotation Zrotation
									JOINT RightHandThumb2
									{
										OFFSET -3.101337 -1.790558 1.790558
										CHANNELS 3 Xrotation Yrotation Zrotation
										JOINT RightHandThumb3
										{
											OFFSET -3.058640 -1.765907 1.765906
											CHANNELS 3 Xrotation Yrotation Zrotation
											End Site
											{
												OFFSET 0.415260 3.926476 -0.049563
											}
										}
									}
								}
								JOINT RightHandIndex1
								{
									OFFSET -11.334419 -0.901459 3.706815
									CHANNELS 3 Xrotation Yrotation Zrotation
									JOINT RightHandIndex2
									{
										OFFSET -3.283112 0.000000 0.000000
										CHANNELS 3 Xrotation Yrotation Zrotation
										JOINT RightHandIndex3
										{
											OFFSET -3.323853 0.000000 0.000000
											CHANNELS 3 Xrotation Yrotation Zrotation
											End Site
											{
												OFFSET 1.135597 3.097809 0.402452
											}
										}
									}
								}
								JOINT RightHandMiddle1
								{
									OFFSET -11.335861 0.000000 0.000000
									CHANNELS 3 Xrotation Yrotation Zrotation
									JOINT RightHandMiddle2
									{
										OFFSET -3.410492 0.000000 0.000000
										CHANNELS 3 Xrotation Yrotation Zrotation
										JOINT RightHandMiddle3
										{
											OFFSET -3.312172 0.000000 0.000000
											CHANNELS 3 Xrotation Yrotation Zrotation
											End Site
											{
												OFFSET 1.150200 3.080154 0.400270
											}
										}
									}
								}
								JOINT RightHandRing1
								{
									OFFSET -11.514786 -0.013176 -3.003090
									CHANNELS 3 Xrotation Yrotation Zrotation
									JOINT RightHandRing2
									{
										OFFSET -3.053307 0.000000 0.000000
										CHANNELS 3 Xrotation Yrotation Zrotation
										JOINT RightHandRing3
										{
											OFFSET -3.295807 0.000000 0.000000
											CHANNELS 3 Xrotation Yrotation Zrotation
											End Site
											{
												OFFSET 1.281006 3.013344 0.375733
											}
										}
									}
								}
								JOINT RightHandPinky1
								{
									OFFSET -10.518692 -0.960396 -5.730441
									CHANNELS 3 Xrotation Yrotation Zrotation
									JOINT RightHandPinky2
									{
										OFFSET -2.861649 0.000000 0.000000
										CHANNELS 3 Xrotation Yrotation Zrotation
										JOINT RightHandPinky3
										{
											OFFSET -2.863380 0.000000 0.000000
											CHANNELS 3 Xrotation Yrotation Zrotation
											End Site
											{
												OFFSET 0.843597 2.711159 0.369971
											}
										}
									}
								}
							}
							JOINT RSleeve
							{
								OFFSET -6.676277 -0.344902 -1.011730
								CHANNELS 3 Xrotation Yrotation Zrotation
								End Site
								{
									OFFSET 0.000000 14.885353 0.000000
								}
							}
						}
					}
				}
				JOINT Backpack
				{
					OFFSET 0.000000 -2.471497 36.677502
					CHANNELS 3 Xrotation Yrotation Zrotation
					End Site
					{
						OFFSET 0.000000 20.427315 0.000000
					}
				}
				JOINT Hood
				{
					OFFSET 0.000000 18.754097 -10.431000
					CHANNELS 3 Xrotation Yrotation Zrotation
					JOINT Hood1
					{
						OFFSET 0.000000 -5.011002 -7.685901
						CHANNELS 3 Xrotation Yrotation Zrotation
						End Site
						{
							OFFSET 0.000000 9.175140 0.000000
						}
					}
				}
				JOINT LHoodieString
				{
					OFFSET 5.250500 16.397697 3.089900
					CHANNELS 3 Xrotation Yrotation Zrotation
					JOINT LHoodieString1
					{
						OFFSET 0.257700 -6.364304 3.694600
						CHANNELS 3 Xrotation Yrotation Zrotation
						JOINT LHoodieString2
						{
							OFFSET 0.000000 -9.643799 2.679100
							CHANNELS 3 Xrotation Yrotation Zrotation
							End Site
							{
								OFFSET 0.000000 10.009018 0.000000
							}
						}
					}
				}
				JOINT RHoodieString
				{
					OFFSET -5.250500 16.397697 3.089900
					CHANNELS 3 Xrotation Yrotation Zrotation
					JOINT RHoodieString1
					{
						OFFSET -0.257700 -6.364304 3.694600
						CHANNELS 3 Xrotation Yrotation Zrotation
						JOINT RHoodieString2
						{
							OFFSET 0.000000 -9.643799 2.679100
							CHANNELS 3 Xrotation Yrotation Zrotation
							End Site
							{
								OFFSET 0.000000 10.009018 0.000000
							}
						}
					}
				}
			}
			JOINT LBackpack_Strap
			{
				OFFSET 15.223200 -7.719803 -6.610900
				CHANNELS 3 Xrotation Yrotation Zrotation
				End Site
				{
					OFFSET 0.000000 16.040596 0.000000
				}
			}
			JOINT RBackpack_Strap
			{
				OFFSET -15.223000 -7.719803 -6.610900
				CHANNELS 3 Xrotation Yrotation Zrotation
				End Site
				{
					OFFSET 0.000000 16.040596 0.000000
				}
			}
		}
	}
	JOINT BoyFacialAnim_Joint
	{
		OFFSET 1.000000 -82.208099 -1.550900
		CHANNELS 3 Xrotation Yrotation Zrotation
		End Site
		{
			OFFSET 0.000000 30.012791 0.000000
		}
	}
}
MOTION
Frames: 4
Frame Time: 0.033333
0.131430 111.847916 0.022192 -13.199075 -3.489619 -6.569427 -0.000001 -0.000000 -0.000000 -4.870607 24.838816 27.422168 20.024699 8.068996 -6.082388 27.008407 1.165473 -3.631746 -0.000000 0.000001 -0.000002 -0.000000 0.000001 -0.000001 -0.000000 -0.000000 -0.000001 12.851233 -8.781747 -4.921912 16.601193 -5.997071 1.372318 36.673984 0.270597 9.449990 -0.000002 -0.000000 -0.000001 -0.000002 -0.000000 -0.000001 -0.000001 0.000001 -0.000001 -1.693982 -2.554681 -4.920705 4.326942 -0.349429 1.670959 4.351376 -0.348584 1.614748 -15.394681 -2.020464 4.148867 -16.061347 3.091891 -18.626983 -0.000002 0.000001 0.000002 -0.000002 0.000001 0.000002 -0.000002 0.000001 0.000002 5.075621 -20.686401 15.558529 -69.709669 -16.920168 -72.897660 0.000126 -110.985766 0.000120 -3.227465 7.940681 26.394035 20.337370 -18.759244 -0.503082 35.734037 41.043966 -21.724632 -0.000000 -0.000003 0.000001 8.535876 12.664166 -47.374489 8.111262 5.398306 -112.759156 -0.000001 -0.000000 0.000002 3.222076 7.545677 -62.527097 6.521821 5.812620 -96.594147 -0.000000 -0.000000 -0.000003 4.116290 7.916744 -71.829398 6.652130 5.796160 -97.882628 -0.000001 -0.000001 -0.000001 5.017423 8.129692 -81.113237 5.190729 5.813830 -83.508768 -0.000001 0.000001 -0.000002 0.000000 0.000003 0.000004 9.390776 23.284127 -24.750340 -119.800958 16.526633 53.433905 0.000030 55.516908 -0.000018 -81.970555 -0.244445 -11.262238 19.450340 20.477816 1.049913 36.431597 -42.891515 22.466794 -0.000001 0.000000 0.000001 8.024691 -11.756344 46.777999 6.454638 -4.297041 112.725790 -0.000001 0.000000 0.000000 2.511350 -6.384229 61.842076 5.190770 -4.626574 96.586299 0.000005 -0.000001 -0.000000 3.221665 -6.689540 71.122903 5.294367 -4.613496 97.872465 -0.000002 0.000003 0.000003 3.930727 -6.866670 80.381853 4.132559 -4.627614 83.524901 0.000002 0.000000 -0.000001 0.000001 -0.000001 -0.000001 -0.000000 -0.000000 -0.000000 -0.000000 -0.000000 -0.000000 -0.000000 -0.000000 -0.000000 -0.000000 -0.000000 -0.000000 -0.000000 -0.000000 -0.000000 -0.000000 0.000001 -0.000000 -0.000000 -0.000000 -0.000000 -0.000000 -0.000000 -0.000000 -0.000000 0.000001 -0.000000 -0.000000 -0.000001 -0.000000 -0.000000 -0.000001 -0.000000 -0.000001 -0.000000 -0.000000 
-0.307704 111.901169 0.463018 -13.619210 -4.181646 -6.101870 -0.000000 0.000000 0.000000 -4.181962 25.235688 26.957671 20.073622 7.996781 -6.156213 27.968539 1.182523 -3.282893 -0.000003 -0.000001 -0.000000 -0.000003 -0.000001 -0.000000 0.000000 0.000001 0.000000 11.385036 -8.951331 -5.704780 16.699353 -3.407581 1.249193 39.412377 0.682472 7.768809 0.000001 0.000001 -0.000000 0.000001 0.000001 -0.000000 -0.000001 -0.000002 -0.000000 -1.558592 -3.212435 -5.409175 4.440693 -0.436784 1.666070 4.468033 -0.441070 1.603189 -15.074178 -1.909177 4.105007 -16.254344 3.152499 -17.606174 0.000001 0.000000 -0.000001 0.000001 0.000000 -0.000001 0.000001 0.000000 -0.000001 4.800023 -19.299919 15.485106 -68.782621 -16.500871 -72.379672 -0.000036 -112.512682 -0.000041 -3.235198 8.633024 26.545535 20.339465 -18.760366 -0.500559 35.741349 41.047579 -21.732718 0.000001 -0.000003 0.000002 8.541257 12.666332 -47.387716 8.112862 5.397643 -112.776143 -0.000001 -0.000000 -0.000004 3.223831 7.546579 -62.542567 6.523216 5.812460 -96.607924 0.000002 -0.000001 0.000002 4.116990 7.916967 -71.844677 6.653540 5.795962 -97.896644 -0.000002 -0.000001 -0.000002 5.016596 8.129568 -81.128673 5.191871 5.813963 -83.519983 -0.000000 0.000001 -0.000002 -0.000001 0.000003 0.000004 9.454390 23.597882 -24.519770 -119.945621 16.005828 55.188960 0.000050 57.071223 -0.000048 -80.491020 -0.194678 -12.231691 19.450227 20.477771 1.049996 36.431252 -42.891372 22.466557 -0.000000 0.000000 0.000000 8.024473 -11.756245 46.777432 6.454595 -4.297053 112.725080 -0.000001 0.000001 0.000000 2.511295 -6.384191 61.841434 5.190719 -4.626563 96.585760 0.000004 -0.000000 0.000001 3.221652 -6.689513 71.122268 5.294309 -4.613475 97.871884 0.000001 -0.000002 0.000002 3.930764 -6.866657 80.381197 4.132527 -4.627619 83.524450 0.000000 0.000002 -0.000001 0.000001 -0.000002 -0.000001 -0.000000 -0.000001 -0.000000 -0.000000 -0.000001 -0.000000 -0.000000 -0.000001 -0.000000 -0.000000 -0.000001 -0.000000 -0.000000 -0.000001 -0.000000 -0.000000 -0.000000 -0.000000 -0.000000 -0.000001 -0.000000 -0.000000 -0.000001 -0.000000 -0.000000 -0.000000 -0.000000 -0.000001 0.000001 0.000001 -0.000001 0.000001 0.000001 -0.000000 0.000000 0.000000 
-0.903552 111.742386 0.996872 -14.062161 -5.056772 -4.726560 0.000000 0.000000 0.000000 -4.766661 24.867409 25.653320 20.254752 7.511111 -6.001373 26.576990 1.046261 -2.846904 -0.000000 -0.000000 -0.000000 -0.000000 -0.000000 -0.000000 0.000000 0.000005 -0.000001 9.257501 -9.465478 -7.287811 16.428061 0.479477 1.026751 41.467059 1.136896 5.780229 -0.000002 -0.000000 0.000000 -0.000002 -0.000000 0.000000 0.000000 0.000000 -0.000001 -1.458307 -3.707027 -6.542490 4.559270 -0.544454 1.568773 4.588951 -0.557233 1.498564 -14.934183 -1.767204 4.203562 -17.475268 3.966412 -16.716435 -0.000003 0.000000 0.000003 -0.000003 0.000000 0.000003 -0.000003 0.000000 0.000003 4.810301 -18.362793 15.691974 -67.489796 -15.333008 -71.057969 0.000095 -114.850532 0.000112 -3.351373 9.812012 26.659412 20.342282 -18.761787 -0.497302 35.751310 41.052374 -21.742989 -0.000000 -0.000002 -0.000001 8.548388 12.669200 -47.405218 8.114968 5.396760 -112.798593 -0.000001 -0.000000 -0.000005 3.226161 7.547783 -62.563051 6.525067 5.812245 -96.626147 0.000002 -0.000001 -0.000003 4.117930 7.917271 -71.864928 6.655426 5.795709 -97.915236 0.000001 0.000000 -0.000002 5.015524 8.129406 -81.149116 5.193374 5.814126 -83.534798 0.000002 0.000000 -0.000000 0.000001 -0.000001 0.000001 9.489607 23.844534 -24.386775 -119.918615 15.080788 57.434098 0.000051 59.233532 -0.000068 -78.732178 -0.113373 -13.468953 19.450026 20.477672 1.050247 36.430634 -42.891057 22.465826 -0.000000 -0.000002 -0.000002 8.024039 -11.756094 46.776325 6.454498 -4.297100 112.723666 -0.000000 0.000002 0.000004 2.511174 -6.384139 61.840137 5.190604 -4.626574 96.584544 0.000004 -0.000001 0.000005 3.221623 -6.689524 71.120984 5.294217 -4.613487 97.870710 0.000000 -0.000000 0.000004 3.930863 -6.866692 80.379913 4.132447 -4.627590 83.523481 -0.000003 0.000000 0.000002 -0.000001 -0.000000 -0.000000 0.000000 0.000000 -0.000000 0.000000 0.000000 -0.000000 0.000000 0.000000 -0.000000 0.000000 0.000000 -0.000000 0.000000 0.000000 -0.000000 -0.000000 0.000001 0.000000 0.000000 0.000000 -0.000000 0.000000 0.000000 -0.000000 -0.000000 0.000001 0.000000 -0.000001 -0.000000 0.000001 -0.000001 -0.000000 0.000001 0.000000 0.000000 0.000000 
-1.541554 111.523926 1.667992 -14.442995 -5.567622 -3.348395 0.000001 0.000000 -0.000000 -5.898230 24.247505 24.477105 20.488421 6.556536 -5.703739 24.113191 0.377658 -2.803742 -0.000000 0.000001 -0.000000 -0.000000 0.000001 -0.000001 -0.000001 -0.000002 -0.000000 7.366596 -9.929705 -8.726137 15.845356 3.815456 0.919971 42.158585 1.584400 5.027739 -0.000001 0.000001 -0.000000 -0.000001 0.000001 -0.000000 -0.000000 -0.000001 -0.000000 -1.430652 -4.010930 -7.631131 4.618544 -0.633926 1.416497 4.648689 -0.655935 1.342202 -14.748298 -1.559256 3.967960 -18.839718 4.445489 -15.810988 0.000000 -0.000001 0.000001 0.000000 -0.000001 0.000001 0.000000 -0.000001 0.000001 4.898908 -18.021111 15.779117 -66.496468 -14.470512 -69.648764 -0.000037 -116.844005 -0.000023 -3.413367 11.000225 26.687163 20.340404 -18.760672 -0.499771 35.744876 41.049054 -21.734755 -0.000001 -0.000001 -0.000000 8.543341 12.667174 -47.392832 8.113472 5.397385 -112.782727 -0.000001 0.000001 -0.000005 3.224514 7.546935 -62.548564 6.523758 5.812400 -96.613231 0.000000 -0.000001 0.000000 4.117269 7.917058 -71.850605 6.654088 5.795891 -97.902074 -0.000001 -0.000001 -0.000004 5.016286 8.129526 -81.134670 5.192311 5.814015 -83.524300 0.000002 -0.000001 -0.000000 0.000001 -0.000001 0.000002 9.379343 23.748163 -24.448734 -119.461525 14.260471 58.825387 0.000031 61.117086 -0.000052 -77.963925 0.318140 -14.535606 19.450021 20.477655 1.050276 36.430528 -42.891033 22.465641 0.000001 -0.000001 0.000001 8.023990 -11.756071 46.776195 6.454494 -4.297103 112.723468 -0.000003 -0.000001 0.000003 2.511167 -6.384130 61.839986 5.190605 -4.626587 96.584421 0.000004 0.000001 -0.000002 3.221626 -6.689521 71.120827 5.294219 -4.613500 97.870552 -0.000000 0.000003 0.000001 3.930881 -6.866678 80.379756 4.132422 -4.627603 83.523364 0.000002 -0.000002 0.000002 0.000001 -0.000001 0.000000 0.000001 -0.000000 -0.000000 0.000001 -0.000000 -0.000000 0.000001 -0.000000 -0.000000 0.000001 -0.000000 -0.000000 0.000001 -0.000000 -0.000000 0.000000 -0.000000 -0.000000 0.000001 -0.000000 -0.000000 0.000001 -0.000000 -0.000000 0.000000 -0.000000 -0.000000 0.000000 -0.000001 -0.000000 0.000000 -0.000001 -0.000000 0.000001 0.000000 -0.000000 
